# xmcd
#
# Track frame offsets:
#	150
#	24767
#	40198
#	57383
#	81240
#	97516
#	128129
#	150694
#	173746
#	192990
#	218009
#	232594
#	250450
#
# Disc length: 3681 seconds
#
# Revision: 0
# Processed by: cddbd v1.5.1PL0 Copyright (c) Steve Scherf et al.
# Submitted via: dBpowerAMP V4.0
#
DISCID=970e5f0d
DTITLE=The Leghounds - Live at Trophy's
DYEAR=1900
DGENRE=Blues
TTITLE0=Hip Shake
TTITLE1=If You Love Me Like You Say
TTITLE2=Scratch My Back
TTITLE3=Nothing Takes the Place of You
TTITLE4=She Caught the Katy
TTITLE5=Wish You Would
TTITLE6=Sun Rises in the East
TTITLE7=Beautician Blues
TTITLE8=These Arms of Mine
TTITLE9=Mojo
TTITLE10=Feeling Sad
TTITLE11=Baby, What you want me to do
TTITLE12=San-Ho-Zay
EXTD=
EXTT0=
EXTT1=
EXTT2=
EXTT3=
EXTT4=
EXTT5=
EXTT6=
EXTT7=
EXTT8=
EXTT9=
EXTT10=
EXTT11=
EXTT12=
PLAYORDER=
